<?xml version="1.0" encoding="UTF-8" standalone="no"?><!DOCTYPE svg PUBLIC "-//W3C//DTD SVG 1.1//EN" "http://www.w3.org/Graphics/SVG/1.1/DTD/svg11.dtd"><svg width="100%" height="100%" viewBox="0 0 3111 811" version="1.1" xmlns="http://www.w3.org/2000/svg" xmlns:xlink="http://www.w3.org/1999/xlink" xml:space="preserve" xmlns:serif="http://www.serif.com/" style="fill-rule:evenodd;clip-rule:evenodd;stroke-linejoin:round;stroke-miterlimit:2;"><rect id="ArtBoard1" x="0" y="0" width="3110.23" height="810.524" style="fill:none;"/><g transform="matrix(4.16667,0,0,4.16667,-1048.12,44.4499)"><g transform="matrix(220,0,0,220,245.115,160.889)"><path d="M0.296,0.012c-0.036,0 -0.068,-0.007 -0.096,-0.022c-0.027,-0.015 -0.051,-0.038 -0.07,-0.069l-0.007,0l-0.007,0.079l-0.044,-0l-0,-0.723l0.058,0l-0,0.268l0.007,-0c0.012,-0.021 0.027,-0.037 0.044,-0.049c0.017,-0.012 0.036,-0.021 0.056,-0.026c0.02,-0.005 0.04,-0.008 0.06,-0.008c0.043,0 0.08,0.01 0.111,0.029c0.031,0.019 0.055,0.049 0.071,0.088c0.017,0.04 0.026,0.09 0.026,0.152c-0,0.066 -0.009,0.12 -0.025,0.161c-0.016,0.041 -0.04,0.072 -0.071,0.091c-0.03,0.019 -0.068,0.029 -0.113,0.029Zm-0.005,-0.051c0.03,-0 0.056,-0.007 0.079,-0.02c0.023,-0.012 0.041,-0.034 0.054,-0.065c0.013,-0.03 0.019,-0.072 0.019,-0.125l0,-0.028c0,-0.05 -0.006,-0.09 -0.018,-0.121c-0.012,-0.031 -0.029,-0.053 -0.053,-0.067c-0.023,-0.014 -0.052,-0.022 -0.087,-0.022c-0.017,0 -0.035,0.003 -0.053,0.008c-0.018,0.006 -0.035,0.016 -0.05,0.031c-0.016,0.014 -0.028,0.036 -0.038,0.064c-0.009,0.028 -0.014,0.065 -0.014,0.111l-0,0.019c-0,0.046 0.005,0.085 0.016,0.117c0.011,0.032 0.029,0.056 0.053,0.073c0.024,0.016 0.055,0.025 0.092,0.025Z" style="fill-rule:nonzero;"/></g><g transform="matrix(220,0,0,220,364.89,160.889)"><path d="M0.072,-0l-0,-0.526l0.045,0l0.006,0.09l0.006,-0c0.004,-0.016 0.011,-0.032 0.02,-0.047c0.009,-0.016 0.022,-0.029 0.038,-0.039c0.017,-0.011 0.037,-0.016 0.062,-0.016c0.01,0 0.018,0.001 0.026,0.002c0.007,0.002 0.013,0.003 0.016,0.004l0,0.052l-0.029,0c-0.024,0 -0.044,0.005 -0.061,0.014c-0.017,0.01 -0.031,0.023 -0.041,0.039c-0.011,0.016 -0.018,0.034 -0.023,0.054c-0.005,0.02 -0.007,0.04 -0.007,0.061l-0,0.312l-0.058,0Z" style="fill-rule:nonzero;"/></g><g transform="matrix(220,0,0,220,429.772,160.889)"><path d="M0.269,0.012c-0.049,0 -0.09,-0.01 -0.124,-0.03c-0.035,-0.019 -0.061,-0.049 -0.078,-0.09c-0.018,-0.041 -0.027,-0.092 -0.027,-0.155c-0,-0.063 0.009,-0.115 0.027,-0.155c0.017,-0.041 0.044,-0.071 0.079,-0.091c0.035,-0.019 0.078,-0.029 0.129,-0.029c0.049,0 0.089,0.01 0.122,0.029c0.032,0.019 0.057,0.047 0.074,0.083c0.017,0.036 0.025,0.08 0.025,0.13l0,0.048l-0.395,0c0,0.051 0.007,0.092 0.02,0.123c0.014,0.031 0.033,0.053 0.059,0.066c0.025,0.014 0.055,0.021 0.091,0.021c0.029,-0 0.053,-0.004 0.074,-0.011c0.02,-0.008 0.036,-0.018 0.05,-0.031c0.013,-0.012 0.023,-0.027 0.03,-0.044c0.006,-0.016 0.01,-0.034 0.011,-0.051l0.056,-0c-0.001,0.024 -0.006,0.047 -0.014,0.069c-0.009,0.023 -0.022,0.043 -0.04,0.06c-0.018,0.018 -0.041,0.032 -0.069,0.043c-0.028,0.01 -0.061,0.015 -0.1,0.015Zm-0.168,-0.309l0.335,0c-0,-0.035 -0.004,-0.065 -0.013,-0.09c-0.008,-0.024 -0.019,-0.044 -0.034,-0.058c-0.015,-0.015 -0.032,-0.026 -0.052,-0.033c-0.02,-0.006 -0.042,-0.01 -0.066,-0.01c-0.035,0 -0.065,0.007 -0.09,0.021c-0.024,0.013 -0.043,0.034 -0.057,0.062c-0.013,0.028 -0.021,0.064 -0.023,0.108Z" style="fill-rule:nonzero;"/></g><g transform="matrix(220,0,0,220,547.674,160.889)"><path d="M0.202,0.012c-0.023,0 -0.044,-0.003 -0.065,-0.008c-0.02,-0.005 -0.038,-0.014 -0.053,-0.025c-0.015,-0.012 -0.027,-0.027 -0.036,-0.045c-0.009,-0.018 -0.013,-0.04 -0.013,-0.066c-0,-0.036 0.009,-0.066 0.027,-0.089c0.019,-0.023 0.044,-0.04 0.077,-0.053c0.033,-0.012 0.071,-0.021 0.116,-0.025c0.045,-0.005 0.093,-0.007 0.145,-0.007l0,-0.074c0,-0.023 -0.004,-0.042 -0.013,-0.058c-0.008,-0.016 -0.023,-0.029 -0.044,-0.037c-0.021,-0.009 -0.05,-0.013 -0.087,-0.013c-0.036,0 -0.064,0.005 -0.085,0.014c-0.02,0.009 -0.035,0.021 -0.043,0.037c-0.009,0.015 -0.013,0.032 -0.013,0.05l0,0.017l-0.056,0c-0,-0.003 -0.001,-0.007 -0.001,-0.01l0,-0.012c0,-0.034 0.009,-0.062 0.026,-0.083c0.018,-0.022 0.042,-0.037 0.074,-0.048c0.032,-0.01 0.068,-0.015 0.11,-0.015c0.04,0 0.075,0.006 0.103,0.018c0.028,0.012 0.049,0.029 0.064,0.051c0.016,0.022 0.023,0.049 0.023,0.08l0,0.317c0,0.013 0.002,0.021 0.007,0.026c0.004,0.005 0.011,0.007 0.019,0.007l0.045,0l0,0.036c-0.011,0.005 -0.022,0.008 -0.032,0.011c-0.01,0.002 -0.021,0.003 -0.031,0.003c-0.018,0 -0.031,-0.004 -0.04,-0.012c-0.009,-0.008 -0.015,-0.019 -0.019,-0.033c-0.003,-0.014 -0.005,-0.029 -0.005,-0.045l-0.007,-0c-0.013,0.019 -0.03,0.036 -0.051,0.049c-0.02,0.014 -0.043,0.024 -0.067,0.031c-0.024,0.007 -0.049,0.011 -0.075,0.011Zm0.008,-0.051c0.023,0 0.045,-0.003 0.067,-0.011c0.022,-0.007 0.043,-0.018 0.061,-0.031c0.019,-0.014 0.033,-0.03 0.045,-0.049c0.011,-0.019 0.017,-0.041 0.017,-0.064l0,-0.062c-0.069,0 -0.126,0.004 -0.17,0.011c-0.045,0.007 -0.078,0.02 -0.1,0.038c-0.022,0.018 -0.032,0.043 -0.032,0.075c-0,0.022 0.005,0.04 0.015,0.054c0.01,0.014 0.023,0.024 0.04,0.03c0.017,0.006 0.036,0.009 0.057,0.009Z" style="fill-rule:nonzero;"/></g><g transform="matrix(220,0,0,220,665.237,160.889)"><path d="M0.072,-0l-0,-0.723l0.058,0l-0,0.479l0.253,-0.282l0.07,0l-0.183,0.205l0.193,0.321l-0.067,-0l-0.165,-0.278l-0.101,0.105l-0,0.173l-0.058,0Z" style="fill-rule:nonzero;"/></g><g transform="matrix(220,0,0,220,772.71,160.889)"><rect x="0.075" y="-0.687" width="0.179" height="0.687" style="fill-rule:nonzero;"/></g><g transform="matrix(220,0,0,220,845.152,160.889)"><path d="M0.247,-0l-0,-0.54l-0.223,-0l-0,-0.147l0.625,-0l-0,0.147l-0.223,-0l0,0.54l-0.179,-0Z" style="fill-rule:nonzero;"/></g><g transform="matrix(220,0,0,220,993.647,160.889)"></g></g></svg>